<svg width="145" height="141" viewBox="0 0 145 141" fill="none" xmlns="http://www.w3.org/2000/svg">
<g clip-path="url(#clip0_69_25)">
<path d="M0.000488281 0.0078125V70.3647H72.4576C72.4576 51.7049 64.8238 33.8094 51.2354 20.6149C37.6471 7.4204 19.2173 0.0078125 0.000488281 0.0078125Z" fill="#333333"/>
<path d="M0.000488281 140.724H72.4576V70.3667C53.2408 70.3667 34.811 77.7793 21.2227 90.9738C7.63434 104.168 0.000488281 122.064 0.000488281 140.724Z" fill="#333333"/>
<path d="M144.916 140.724V70.3667H72.4587C72.4587 89.0265 80.0926 106.922 93.6809 120.117C107.269 133.311 125.699 140.724 144.916 140.724Z" fill="#333333"/>
<path d="M144.916 0.00634766H72.4587V70.3633C91.6756 70.3633 110.105 62.9507 123.694 49.7562C137.282 36.5617 144.916 18.6662 144.916 0.00634766Z" fill="#333333"/>
</g>
<defs>
<clipPath id="clip0_69_25">
<rect width="144.914" height="140.714" fill="white"/>
</clipPath>
</defs>
</svg>
