<svg xmlns="http://www.w3.org/2000/svg" version="1.1" xmlns:xlink="http://www.w3.org/1999/xlink" width="739.0496121012577" height="200" viewBox="-9.458755493164062 12.199999809265137 168.25875854492188 38.23999786376953"><path d="M2.20 50.44C3.68 50.32 5.36 50.32 7 50.04C10.16 49.52 13.08 48.28 15.84 46.64C17.28 45.76 18.52 44.60 19.48 43.20C21.40 40.48 22.40 37.40 22.36 34.04C22.36 32.88 22.40 31.72 22.16 30.60C21.76 28.88 21.16 27.24 20.24 25.72C19.24 24.16 18 23 16.12 22.64C16.04 22.64 15.96 22.60 15.88 22.56C15.56 22.44 15.44 21.96 15.68 21.68C16.68 20.32 17.56 18.92 18.44 17.48C18.92 16.72 19.20 15.92 19.48 15.08C19.76 14.28 19.32 13.24 18.60 12.76C18.08 12.40 17.52 12.20 16.88 12.20C16 12.20 15.12 12.28 14.24 12.48C11.72 13 9.32 13.84 7 14.88C4.76 15.92 2.68 17.24 0.96 19.12C0.36 19.76-0.08 20.52-0.44 21.32C-0.84 22.28-0.32 23.44 0.72 23.92C0.84 24 1.08 23.96 1.20 23.92C1.44 23.84 1.60 23.52 1.52 23.24C1.48 23.08 1.40 22.92 1.32 22.76C1.04 22.24 1.16 21.76 1.44 21.28C2.24 19.88 3.36 18.76 4.68 17.88C7.60 15.92 10.72 14.56 14.12 13.88C15.08 13.68 16.04 13.60 17 13.80C17.36 13.88 17.72 14.40 17.64 14.80C17.56 15.16 17.52 15.52 17.40 15.84C17 16.60 16.56 17.40 16.08 18.12C14.12 21.24 13.68 22.12 10.04 24.20C8.64 25 7.48 26.08 6.56 27.40C5.72 28.64 4.76 29.80 4 31.08C3.12 32.64 2.12 34.08 1.24 35.60C0.68 36.52 0.24 37.44-0.24 38.40C-0.32 38.60-0.28 38.92-0.20 39.16C0.16 40.16 0.88 40.28 1.60 39.56C2.20 39 2.76 38.36 2.68 37.52C2.64 36.56 2.96 35.80 3.48 35.04C3.96 34.32 4.40 33.56 4.92 32.84C5.84 31.56 6.84 30.32 7.72 29C9 27 10.76 25.64 13 24.84C13.24 24.76 13.48 24.64 13.72 24.52C15.16 23.96 16.84 24.32 17.84 25.48C18.60 26.36 19.28 27.24 19.76 28.32C20.40 29.76 20.80 31.28 20.76 32.92C20.76 33.24 20.76 33.60 20.76 33.96C20.76 35.68 20.16 38.52 19.48 40.12C18.96 41.44 18.12 42.56 17.28 43.72C16.76 44.44 16.16 45.04 15.40 45.56C13.32 47.04 10.88 47.88 8.44 48.64C7.36 49 6.24 49.20 5.08 49.24C3.16 49.36 1.20 49.32-0.72 49.28C-2.40 49.28-3.76 48.40-5.20 47.76C-5.48 47.64-5.76 47.36-5.96 47.08C-7.40 45.40-8.28 43.52-7.92 41.28C-7.84 40.84-7.88 40.36-7.68 40C-7 38.84-6.44 37.64-5.20 36.96C-4.44 36.52-3.72 36.04-3 35.52C-2.92 35.48-2.88 35.20-2.92 35.04C-3 34.80-3.36 34.60-3.56 34.68C-4.76 35.24-5.92 35.88-6.96 36.68C-7.84 37.40-8.52 38.36-9 39.40C-9.56 40.68-9.60 41.96-9.16 43.28C-8.84 44.12-8.52 44.92-8.12 45.72C-7.60 46.76-6.96 47.72-6.04 48.40C-4.76 49.36-3.32 50.08-1.72 50.20C-0.48 50.28 0.76 50.36 2.20 50.44ZM37.32 30.40C37.16 30.36 37.04 30.32 36.92 30.32C36.48 30.36 36 30.40 35.56 30.44C33.36 30.68 31.16 30.96 28.92 31.16C28.40 31.20 27.68 31.12 27.36 30.76C26.80 30.20 26.44 30.40 25.88 30.68C25.16 31.04 24.92 31.60 24.72 32.32C24.20 34.60 23.60 36.88 23.04 39.16C23 39.44 23 39.72 23 40.04C23.40 39.96 23.96 40.08 24.20 39.84C24.56 39.44 24.80 38.88 24.96 38.36C25.48 36.88 25.92 35.44 26.40 34C26.68 33.12 27.20 32.60 28.20 32.56C29.32 32.48 30.48 32.24 31.56 31.96C33.32 31.56 35.04 31.08 36.76 30.60C36.92 30.56 37.08 30.48 37.32 30.40ZM30.12 37.60C30.24 38.40 30.16 38.76 30.32 38.92C30.64 39.36 31.08 40 31.48 40C32.20 40 32.32 39.32 32.20 38.60C31.76 36.68 32.56 35.04 33.52 33.48C33.76 33.12 34.28 32.84 34.32 32.48C34.40 31.84 34.44 30.96 34.08 30.60C33.44 30 32.68 30.52 32.40 31.20C31.52 33.48 30.76 35.76 30.12 37.60ZM37.64 24.96C37.48 24.04 37.52 23.20 37.24 22.52C37.12 22.12 36.48 21.92 36.08 21.64C35.88 22.04 35.44 22.52 35.52 22.88C35.72 23.68 36.16 24.44 36.60 25.20C36.68 25.32 37.08 25.40 37.28 25.36C37.44 25.28 37.56 25 37.64 24.96ZM38.60 28.36C38.04 28.28 37.52 28.52 37.48 28.88C37.44 29.16 37.52 29.48 37.56 29.76C37.56 29.84 37.64 29.96 37.72 30C38.16 30.32 38.60 30.60 39 30.88C39.20 31.04 39.20 31.24 39.08 31.44C38.08 33.16 37.12 34.84 36.08 36.52C35.52 37.40 34.84 38.20 34.52 39.20C34.48 39.36 34.56 39.60 34.64 39.76C34.76 39.96 35.32 40.08 35.48 39.96C35.84 39.72 36.20 39.48 36.44 39.16C37.68 37.28 38.92 35.36 40.12 33.44C40.36 33.08 40.52 32.72 40.76 32.36C41.24 31.52 41.96 30.96 42.96 30.80C43.76 30.72 44.60 30.56 45.40 30.40C46 30.32 46.68 30.88 46.72 31.44C46.84 32.92 46.72 34.36 46.28 35.76C46.12 36.20 45.84 36.44 45.48 36.64C45.40 36.68 45.32 36.76 45.28 36.88C45.24 36.96 45.24 37.08 45.28 37.16C45.44 37.56 45.64 37.92 46.04 38.12C46.36 38.32 47 38.08 47.08 37.76C47.48 36.24 47.60 34.68 47.88 33.16C48 32.44 48.16 31.76 48.36 31.08C48.48 30.68 48.80 30.36 49.20 30.16C49.92 29.80 50.72 29.52 51.56 29.44C52.28 29.40 53 29.28 53.68 29.16C53.88 29.12 54.04 28.96 54.16 28.80C54.28 28.64 54.12 28.56 53.84 28.56C52.60 28.52 51.36 28.52 50.12 28.52C48.88 28.48 48.44 28 48.52 26.76C48.52 26.44 48.52 26.12 48.60 25.84C49.08 24 49.04 22.16 49.12 20.28C49.20 18.60 49.60 17 50.28 15.48C50.40 15.20 50.52 14.92 50.60 14.64C50.64 14.44 50.64 14.20 50.56 14.04C50.16 13.36 49.56 12.96 48.76 13C48.60 13 48.32 13.12 48.28 13.24C48 13.80 47.76 14.40 47.64 15C47.40 16.36 46.92 17.56 46.24 18.76C44.72 21.48 43.20 24.20 41.68 26.88C41.36 27.40 40.96 27.88 40.52 28.36C40.32 28.60 40.04 28.72 39.68 28.64C39.28 28.56 38.88 28.44 38.60 28.36ZM47.40 24.40C47.36 25.56 47.32 26.40 47.24 27.20C47.16 28.44 46.48 29 45.20 29.04C44.68 29.08 44.16 28.96 43.68 28.88C43.44 28.84 43.32 28.64 43.36 28.40C43.40 28.12 43.40 27.76 43.56 27.52C44.48 25.92 45.40 24.28 46.36 22.68C46.52 22.44 46.80 22.28 47.04 22.08C47.40 22.36 47.36 22.80 47.40 23.20C47.44 23.68 47.40 24.20 47.40 24.40ZM53.84 37.92C53.84 39.84 54.68 40.40 55.92 39.76C56.56 39.40 57.04 38.84 57.64 38.40C57.84 38.24 58.12 38.12 58.36 38C58.44 38.24 58.56 38.48 58.60 38.76C58.68 39.16 58.60 39.64 58.76 40C58.92 40.36 59.28 40.60 59.56 40.92C59.68 40.60 59.88 40.28 59.92 40C60.00 38.52 60.44 37.16 61.36 36C61.64 35.60 61.76 35.08 61.92 34.60C62.20 33.88 62.88 33.04 61.92 32.52C61.00 32.04 60.84 33.16 60.40 33.64C59.08 35.16 57.80 36.72 56.48 38.24C56.24 38.48 55.72 38.48 55.32 38.60C55.32 38.20 55.20 37.76 55.32 37.44C55.96 35.92 56.72 34.44 57.36 32.92C57.80 31.88 57.60 30.92 57.00 30.56C56.20 30.04 55.68 30.76 55.04 31.04C54.80 31.16 54.56 31.36 54.36 31.56C52.48 33.44 50.56 35.28 48.72 37.20C48.36 37.52 48.08 38 47.96 38.48C47.92 38.72 48.20 39.08 48.40 39.36C48.44 39.40 48.88 39.20 49.04 39.04C50.48 37.36 51.84 35.60 53.32 33.96C53.96 33.24 54.92 32.80 55.72 32.24C56.20 33.36 55.32 34.08 55.00 35C54.56 36.12 54.12 37.24 53.84 37.92ZM68.48 37.92C68.48 39.84 69.32 40.40 70.56 39.76C71.20 39.40 71.68 38.84 72.28 38.40C72.48 38.24 72.76 38.12 73 38C73.08 38.24 73.20 38.48 73.24 38.76C73.32 39.16 73.24 39.64 73.40 40C73.56 40.36 73.92 40.60 74.20 40.92C74.32 40.60 74.52 40.28 74.56 40C74.64 38.52 75.08 37.16 76 36C76.28 35.60 76.40 35.08 76.56 34.60C76.84 33.88 77.52 33.04 76.56 32.52C75.64 32.04 75.48 33.16 75.04 33.64C73.72 35.16 72.44 36.72 71.12 38.24C70.88 38.48 70.36 38.48 69.96 38.60C69.96 38.20 69.84 37.76 69.96 37.44C70.60 35.92 71.36 34.44 72 32.92C72.44 31.88 72.24 30.92 71.64 30.56C70.84 30.04 70.32 30.76 69.68 31.04C69.44 31.16 69.20 31.36 69 31.56C67.12 33.44 65.20 35.28 63.36 37.20C63.00 37.52 62.72 38 62.60 38.48C62.56 38.72 62.84 39.08 63.04 39.36C63.08 39.40 63.52 39.20 63.68 39.04C65.12 37.36 66.48 35.60 67.96 33.96C68.60 33.24 69.56 32.80 70.36 32.24C70.84 33.36 69.96 34.08 69.64 35C69.20 36.12 68.76 37.24 68.48 37.92ZM87.56 39.08C87.52 39 87.44 38.96 87.40 38.92C87.28 38.76 87.16 38.64 87 38.52C86.24 37.96 85.88 37.56 85.80 37.16C85.72 36.76 85.92 36.24 86.48 35.44C86.48 35.40 86.52 35.36 86.56 35.28C86.64 35.20 86.72 35.08 86.80 34.96C87 34.60 87.28 34.08 87.04 33.64C86.88 33.32 86.56 33.16 86 33.08C85.40 33.04 85.28 32.88 85.20 32.40C85.16 32.16 85.08 31.88 84.96 31.60C84.72 31 84.40 30.40 83.68 30.40C83.40 30.40 83.12 30.48 82.68 30.64C82.24 30.80 81.76 31 81.44 31.36C79.92 33.08 78.92 34.64 78.24 36.28C78.16 36.48 78.12 36.64 78.08 36.80C78.08 36.84 78.08 36.88 78.04 36.92L78.04 36.96L78.04 37C78 37.92 78.28 38.72 78.80 39.28C79.24 39.72 79.84 40 80.48 40C80.96 40 81.40 39.88 81.88 39.64C82.48 39.32 83.08 38.92 83.64 38.40C83.88 38.16 84.04 38.12 84.12 38.12C84.24 38.12 84.40 38.32 84.48 38.48C84.92 39.12 85.44 39.84 86.44 39.84C86.48 39.84 86.48 39.84 86.52 39.84C86.76 39.84 87 39.76 87.16 39.68C87.28 39.64 87.36 39.60 87.40 39.60L87.92 39.44ZM83.96 34.36C83.84 36.24 82.68 37.88 81.12 38.32C80.88 38.36 80.72 38.40 80.56 38.40C80.56 38.40 80.56 38.40 80.56 38.40C80.28 38.40 80 38.32 79.92 37.44C79.92 37.40 79.92 37.32 79.92 37.28C79.88 37.20 79.88 37.08 79.92 37.04C80.64 35.28 81.40 33.60 83.04 32.52C83.28 32.40 83.40 32.36 83.44 32.36C83.56 32.36 83.60 32.56 83.64 32.72C83.72 33.20 83.84 33.68 83.92 34.04C83.92 34.16 83.96 34.28 83.96 34.36ZM100.32 24.56L100.28 24.60C100.20 24.28 100.20 23.96 100.08 23.68C99.68 22.88 99.28 22.12 98.88 21.32C98.52 20.60 98.60 19.92 98.88 19.20C99.08 18.60 99.48 18.08 99.92 17.60C102.00 15.48 104.48 14.36 107.44 14.32C107.92 14.32 108.40 14.36 108.88 14.36C109.96 14.36 110.92 14.76 111.84 15.32C112.72 15.88 113.20 16.68 113.36 17.68C113.48 18.48 113.44 19.28 113.20 20.08C112.72 21.76 112.08 23.40 111.32 25C110.88 25.92 110.24 26.64 109.40 27.16C108.36 27.88 107.24 28.52 105.96 28.88C105.80 28.92 105.36 28.80 105.32 28.68C105.28 28.52 105.24 28.36 105.28 28.24C105.80 26.96 106.36 25.72 107.20 24.64C107.68 24.04 107.72 23.32 107.88 22.60C107.96 22.28 107.28 21.64 106.92 21.76C106.68 21.80 106.44 21.96 106.36 22.16C105.76 23.40 105.08 24.56 104.68 25.88C104.40 26.72 104.04 27.56 103.52 28.28C103.48 28.36 103.20 28.36 103.12 28.28C102.92 28.16 102.80 27.92 102.64 27.76C102.44 27.56 101.96 27.68 101.80 27.96C101.68 28.28 101.68 28.56 101.76 28.92C101.88 29.32 102.24 29.56 102.48 29.84C102.68 30.12 102.76 30.44 102.56 30.76C101.80 32.08 101.16 33.44 100.44 34.80C99.80 35.92 99.20 37.04 98.60 38.20C98.40 38.52 98.28 38.92 98.16 39.32C98.12 39.44 98.24 39.60 98.32 39.72C98.48 39.96 98.72 40.08 98.96 40C99.16 39.88 99.40 39.80 99.56 39.64C100.16 39.08 100.48 38.32 100.80 37.60C101.28 36.48 101.72 35.36 102.20 34.28C102.68 33.24 103.28 32.28 103.80 31.28C104.12 30.68 104.56 30.24 105.24 30.08C105.44 30.04 105.68 30 105.92 29.92C107.52 29.52 108.92 28.76 110.24 27.84C111.20 27.20 111.96 26.40 112.48 25.36C113.04 24.28 113.40 23.12 113.84 22C114.48 20.40 114.52 18.72 114.36 17.04C114.32 16.36 114.04 15.80 113.60 15.28C113.00 14.64 112.28 14.12 111.48 13.76C109.64 12.92 107.72 12.80 105.80 13.24C104.92 13.44 104.08 13.68 103.24 14C101.20 14.76 99.36 15.88 97.96 17.64C97.68 17.96 97.48 18.28 97.44 18.72C97.40 19.20 97.36 19.68 97.36 20.16C97.36 20.88 97.52 21.56 98.04 22.16C98.60 22.84 99.16 23.52 99.72 24.20C99.88 24.36 100.12 24.44 100.32 24.56ZM108.36 37.60C108.48 38.40 108.40 38.76 108.56 38.92C108.88 39.36 109.32 40 109.72 40C110.44 40 110.56 39.32 110.44 38.60C110.00 36.68 110.80 35.04 111.76 33.48C112.00 33.12 112.52 32.84 112.56 32.48C112.64 31.84 112.68 30.96 112.32 30.60C111.68 30 110.92 30.52 110.64 31.20C109.76 33.48 109.00 35.76 108.36 37.60ZM115.88 24.96C115.72 24.04 115.76 23.20 115.48 22.52C115.36 22.12 114.72 21.92 114.32 21.64C114.12 22.04 113.68 22.52 113.76 22.88C113.96 23.68 114.40 24.44 114.84 25.20C114.92 25.32 115.32 25.40 115.52 25.36C115.68 25.28 115.80 25 115.88 24.96ZM120.32 38C120.24 37.64 119.76 37.40 119.24 37.20C118.80 37.04 118.36 36.88 117.92 36.72C117.36 36.52 116.76 36.32 116.20 36.08C115.24 35.64 114.32 35.16 114.28 34.24C114.20 33.24 115.04 32.68 115.88 32.16L115.92 32.16C116 32.08 116.08 32.04 116.16 31.96C116.48 31.76 116.80 31.52 117.08 31.52C117.20 31.52 117.32 31.56 117.44 31.68C117.60 31.84 117.56 32.36 117.56 32.76C117.52 32.92 117.52 33.08 117.52 33.24C117.52 33.48 117.48 33.68 117.40 33.96C117.40 34.04 117.36 34.16 117.32 34.28L117.24 34.80L117.60 34.44C117.68 34.36 117.76 34.28 117.88 34.20C118.08 34 118.28 33.80 118.44 33.56C118.68 33.20 118.84 32.80 119 32.36C119.24 31.64 119.04 30.96 118.40 30.40C118.08 30.12 117.72 30 117.32 30C117.08 30 116.80 30.04 116.52 30.16C115.24 30.68 114.12 31.56 113.04 32.92C112.48 33.60 112.44 34.40 113 35.08C113.36 35.56 113.76 36.04 114.28 36.36C114.92 36.76 115.60 37.08 116.24 37.40C116.64 37.56 117 37.76 117.36 37.96C117.44 38 117.52 38.08 117.60 38.16C117.60 38.20 117.60 38.20 117.60 38.20C117.60 38.20 117.60 38.20 117.60 38.20C117.52 38.24 117.44 38.32 117.40 38.32C116.88 38.40 116.36 38.44 115.88 38.48C115.76 38.52 115.64 38.52 115.48 38.52C115.32 38.52 115.12 38.48 114.96 38.48C114.68 38.44 114.40 38.44 114.16 38.44C114.12 38.44 114.04 38.44 114 38.44C113.80 38.44 113.16 38.60 113.16 38.88C113.12 39.28 113.28 39.72 113.40 40C113.44 40.16 113.60 40.16 113.64 40.16C113.76 40.16 113.92 40.12 114.08 40.08C114.16 40.08 114.20 40.08 114.24 40.04C114.44 40.04 114.64 40 114.80 39.96C115.16 39.88 115.48 39.84 115.80 39.80C115.96 39.80 116.16 39.80 116.32 39.80C117.32 39.76 118.40 39.76 119.40 39.20C119.44 39.16 119.52 39.12 119.60 39.08C120 38.88 120.52 38.60 120.32 38ZM126.60 36.16C126.56 36.16 126.52 36.16 126.48 36.16C126.36 36.16 126.16 36.16 125.96 36.28C125.84 36.40 125.72 36.52 125.64 36.64C125.52 36.76 125.44 36.84 125.36 36.92C125.20 37.04 125.04 37.16 124.88 37.28C124.36 37.68 123.84 38.04 123.28 38.32C123.08 38.44 122.92 38.48 122.84 38.48C122.80 38.48 122.64 38.48 122.48 37.84C122.44 37.68 122.40 37.48 122.40 37.32C122.36 35.68 123.12 34.28 123.92 32.80C123.96 32.72 124.00 32.68 124.04 32.60C124.04 32.60 124.08 32.56 124.08 32.56C124.12 32.56 124.16 32.52 124.16 32.48C124.36 32.36 124.56 32.28 124.68 32.28C124.92 32.28 125.04 32.56 125.08 32.80C125.12 33.04 125.08 33.36 125.04 33.64C125.00 33.84 124.96 34 124.96 34.20C124.96 34.48 125.16 34.80 125.44 34.88C125.48 34.88 125.52 34.88 125.56 34.88C125.76 34.88 126.08 34.72 126.16 34.44C126.20 34.32 126.24 34.20 126.28 34.04C126.40 33.64 126.52 33.20 126.52 32.76C126.56 31.76 126.16 31 125.36 30.56C125.08 30.44 124.80 30.36 124.52 30.36C123.88 30.36 123.36 30.72 122.96 31.08L122.96 31.12C122.68 31.36 122.36 31.60 122.16 31.96C121.32 33.28 120.84 34.80 120.60 36.80L120.60 36.84L120.60 36.88C120.60 37 120.64 37.12 120.64 37.20C120.68 37.48 120.68 37.80 120.80 38.12C121.16 39.36 121.84 40.04 122.76 40.04C123.24 40.04 123.76 39.84 124.40 39.52C125.32 39 125.96 38.24 126.60 37.48C126.68 37.36 126.80 37.24 126.88 37.12C127.04 36.96 127.04 36.80 127.04 36.68C127.04 36.68 127.04 36.64 127.04 36.64L127.16 36.08L126.60 36.16ZM135.76 30.40C135.68 30.36 135.60 30.36 135.48 30.36C135.24 30.36 134.92 30.44 134.80 30.60C134.16 31.36 133.68 31.96 133.36 32.56C132.72 33.64 132.08 34.80 131.48 35.88C130.92 36.84 130.36 37.88 129.80 38.88C129.72 39.04 129.52 39.16 129.36 39.32C129.32 39.32 129.28 39.36 129.24 39.40C129.24 39.36 129.20 39.32 129.20 39.32C129.12 39.12 129.04 38.92 128.96 38.72C128.40 37.20 128.84 35.80 129.60 34.20C130.08 33.20 130.56 32.20 131.08 31.20C131.52 30.32 132 29.40 132.40 28.52C134.08 25.08 135 21.16 135.24 16.60L135.24 16.60C135.24 16.36 135.24 16.12 135.24 15.88C135.28 15.32 135.28 14.72 135.20 14.16C135.16 13.76 134.80 13.12 134.40 13.08C134.36 13.08 134.36 13.04 134.32 13.04C133.96 13.04 133.44 13.44 133.24 13.76C132.80 14.44 132.44 15.20 132.16 15.96C130.32 21.52 129.04 26.52 128.24 31.24C127.92 33.16 127.48 35.16 125.96 36.72C125.56 37.16 125.40 37.52 125.48 37.84C125.60 38.16 125.92 38.36 126.52 38.48C127.24 38.60 127.60 38.92 127.68 39.56C127.72 39.68 127.72 39.80 127.72 39.92C127.76 40.48 127.84 41.20 128.64 41.20C128.64 41.20 128.68 41.20 128.68 41.20C129.28 41.16 129.88 40.68 130.44 40.24C130.48 40.20 130.52 40.16 130.56 40.12C130.80 39.92 130.96 39.60 131.12 39.32C131.16 39.20 131.20 39.08 131.28 38.96C131.44 38.68 131.60 38.40 131.76 38.12C132.08 37.52 132.44 36.92 132.76 36.32C132.80 36.28 132.88 36.24 132.96 36.24C133 36.24 133 36.24 133 36.24C133.04 36.24 133.12 36.32 133.12 36.36C133.16 36.52 133.20 36.72 133.20 36.92C133.24 37.16 133.24 37.40 133.28 37.64C133.44 38.36 133.60 39.08 133.88 39.76C133.96 39.96 134.20 40.04 134.44 40.08C134.52 40.12 134.64 40.12 134.68 40.16L134.88 40.24L134.92 40.04C134.92 39.96 134.96 39.88 135 39.80C135.08 39.60 135.16 39.36 135.04 39.16C134.08 37.72 134.56 36.36 135.04 34.88C135.12 34.68 135.20 34.48 135.28 34.28C135.60 33.28 135.88 32.32 136.12 31.32C136.20 31.04 136 30.56 135.76 30.40ZM130.04 29.68C130.12 29.32 130.16 28.96 130.24 28.60C130.40 27.60 130.60 26.60 130.88 25.64C131.64 22.92 132.52 20.20 133.36 17.56L133.44 17.32C133.48 17.16 133.64 17 133.80 16.84C133.80 16.80 133.80 16.80 133.80 16.80C133.84 16.96 133.88 17.16 133.92 17.32L133.92 17.60C133.92 17.60 133.92 17.60 133.92 17.64C133.72 21.32 132.76 24.88 130.88 28.84C130.72 29.16 130.56 29.48 130.36 29.72C130.32 29.76 130.20 29.80 130.12 29.84C130.12 29.84 130.08 29.84 130.08 29.84C130.08 29.80 130.04 29.72 130.04 29.68ZM146.04 38.88C145.48 38.80 144.52 38.76 143.68 38.48C142.20 38 142.08 37.28 143.24 36.36C145.40 34.64 147.60 33.04 149.80 31.40C150.12 31.12 150.60 31 150.80 30.64C150.96 30.40 151.00 29.80 150.80 29.56C150.64 29.36 150.00 29.28 149.72 29.44C149.16 29.80 148.76 30.40 148.20 30.80C145.88 32.56 143.56 34.28 141.24 35.96C140.92 36.16 140.48 36.12 140.08 36.20C140.12 35.76 140.04 35.36 140.12 34.96C141.84 29.48 144.20 24.24 147.00 19.28C147.56 18.28 148.16 17.08 149.80 16.96C150.80 16.88 151.00 15.56 150.88 14.64C150.80 14.12 150.40 13.44 150.00 13.28C149.12 12.88 148.60 13.68 148.12 14.28C147.92 14.56 147.72 14.84 147.56 15.12C145.88 18.32 144.04 21.40 142.60 24.68C140.84 28.76 139.44 33 137.88 37.16C137.36 38.60 136.72 40 136.20 41.44C136.08 41.84 136.32 42.32 136.40 42.76C136.84 42.56 137.36 42.48 137.64 42.16C138.28 41.48 138.72 40.60 139.32 39.88C139.92 39.20 140.68 38.80 141.60 39.36C143.44 40.40 145.40 39.96 147.36 39.64C147.68 39.60 148.80 39.12 149.12 38.88C148.76 38.76 147.56 38.72 147.20 38.68C146.96 38.64 146.68 38.76 146.04 38.88ZM153.96 38.88C153.20 38.80 152.56 38.76 151.96 38.60C151.28 38.44 151.04 37.88 151.12 37.16C151.16 36.44 151.64 36.32 152.24 36.36C154.08 36.48 155.56 35.72 156.72 34.32C157.36 33.52 157.52 31.80 157.04 31.04C156.56 30.32 155.36 30.12 154.04 30.60C152.08 31.32 150.60 32.68 149.72 34.56C149.04 35.88 148.96 37.44 149.88 38.76C150.80 40.04 152.28 40.16 153.68 39.88C155.24 39.56 156.76 38.96 158.32 38.44C158.48 38.40 158.64 38.16 158.80 38.04C158.56 38 158.36 37.92 158.12 38C156.72 38.28 155.28 38.60 153.96 38.88ZM156.00 32.40C155.84 33.60 153.60 35.08 152.72 34.72C152.56 34.64 152.32 34.20 152.36 34C152.56 33.24 154.44 31.88 155.28 31.92C155.52 31.92 155.80 32.28 156.00 32.40Z" fill="black"></path></svg>